<?xml version="1.0" encoding="UTF-8"?>
<svg id="_圖層_1" data-name="圖層 1" xmlns="http://www.w3.org/2000/svg" version="1.1" viewBox="0 0 36 36">
  <defs>
    <style>
      .cls-1 {
        opacity: .8;
      }

      .cls-2 {
        fill: #5f5f5f;
      }

      .cls-2, .cls-3 {
        stroke-width: 0px;
      }

      .cls-3 {
        fill: #fff;
      }
    </style>
  </defs>
  <g class="cls-1">
    <circle class="cls-2" cx="18" cy="18" r="18"/>
  </g>
  <polygon class="cls-3" points="25.82 11.74 19.56 18 25.82 24.26 24.26 25.82 18 19.56 11.74 25.82 10.18 24.26 16.44 18 10.18 11.74 11.74 10.18 18 16.44 24.26 10.18 25.82 11.74"/>
  <path class="cls-3" d="M18,1.5c9.1,0,16.5,7.4,16.5,16.5s-7.4,16.5-16.5,16.5S1.5,27.1,1.5,18,8.9,1.5,18,1.5M18,0C8.06,0,0,8.06,0,18s8.06,18,18,18,18-8.06,18-18S27.94,0,18,0h0Z"/>
</svg>